<svg width="15" height="15" viewBox="0 0 15 15" fill="none" xmlns="http://www.w3.org/2000/svg">
<path d="M7.44048 5.71429H8.92857V3.57143H11.1607V2.14286H8.92857V0H7.44048V2.14286H5.20833V3.57143H7.44048V5.71429ZM4.46429 12.1429C3.64583 12.1429 2.98363 12.7857 2.98363 13.5714C2.98363 14.3571 3.64583 15 4.46429 15C5.28274 15 5.95238 14.3571 5.95238 13.5714C5.95238 12.7857 5.28274 12.1429 4.46429 12.1429ZM11.9048 12.1429C11.0863 12.1429 10.4241 12.7857 10.4241 13.5714C10.4241 14.3571 11.0863 15 11.9048 15C12.7232 15 13.3929 14.3571 13.3929 13.5714C13.3929 12.7857 12.7232 12.1429 11.9048 12.1429ZM4.59077 9.82143L4.6131 9.73571L5.28274 8.57143H10.8259C11.3839 8.57143 11.875 8.27857 12.128 7.83571L15 2.82857L13.7054 2.14286H13.6979L12.8795 3.57143L10.8259 7.14286H5.60268L5.50595 6.95L3.83929 3.57143L3.13244 2.14286L2.43304 0.714286H0V2.14286H1.4881L4.16667 7.56429L3.1622 9.31429C3.04315 9.51429 2.97619 9.75 2.97619 10C2.97619 10.7857 3.64583 11.4286 4.46429 11.4286H13.3929V10H4.77679C4.68006 10 4.59077 9.92143 4.59077 9.82143Z" fill="white"/>
</svg>
