<svg width="35" height="25" viewBox="0 0 35 25" fill="none" xmlns="http://www.w3.org/2000/svg">
<path d="M22.2727 15.625C18.025 15.625 9.54545 17.7031 9.54545 21.875V25H35V21.875C35 17.7031 26.5205 15.625 22.2727 15.625ZM7.95455 9.375V4.6875H4.77273V9.375H0V12.5H4.77273V17.1875H7.95455V12.5H12.7273V9.375M22.2727 12.5C23.9605 12.5 25.5791 11.8415 26.7725 10.6694C27.9659 9.49732 28.6364 7.9076 28.6364 6.25C28.6364 4.5924 27.9659 3.00268 26.7725 1.83058C25.5791 0.65848 23.9605 0 22.2727 0C20.585 0 18.9664 0.65848 17.773 1.83058C16.5795 3.00268 15.9091 4.5924 15.9091 6.25C15.9091 7.9076 16.5795 9.49732 17.773 10.6694C18.9664 11.8415 20.585 12.5 22.2727 12.5Z" fill="white"/>
</svg>
