<svg width="526" height="30" viewBox="0 0 526 30" fill="none" xmlns="http://www.w3.org/2000/svg">
<path d="M9 24C7.35 24 6.015 25.35 6.015 27C6.015 28.65 7.35 30 9 30C10.65 30 12 28.65 12 27C12 25.35 10.65 24 9 24ZM0 0V3H3L8.4 14.385L6.375 18.06C6.135 18.48 6 18.975 6 19.5C6 21.15 7.35 22.5 9 22.5H27V19.5H9.63C9.42 19.5 9.255 19.335 9.255 19.125L9.3 18.945L10.65 16.5H21.825C22.95 16.5 23.94 15.885 24.45 14.955L29.82 5.22C29.94 5.01 30 4.755 30 4.5C30 3.675 29.325 3 28.5 3H6.315L4.905 0H0ZM24 24C22.35 24 21.015 25.35 21.015 27C21.015 28.65 22.35 30 24 30C25.65 30 27 28.65 27 27C27 25.35 25.65 24 24 24Z" fill="black"/>
<path d="M52.603 14.0689V15.7493H47.9595V14.0689H52.603ZM59.1655 14.0689V15.7493H54.522V14.0689H59.1655ZM76.4741 13.3828H74.2965C74.2567 13.1011 74.1755 12.8509 74.0529 12.6321C73.9303 12.41 73.7728 12.2211 73.5806 12.0653C73.3884 11.9096 73.1663 11.7902 72.9144 11.7074C72.6658 11.6245 72.3957 11.5831 72.104 11.5831C71.5771 11.5831 71.118 11.714 70.7269 11.9759C70.3358 12.2344 70.0326 12.6122 69.8171 13.1094C69.6017 13.6032 69.494 14.2031 69.494 14.9091C69.494 15.6349 69.6017 16.2448 69.8171 16.7386C70.0359 17.2325 70.3408 17.6054 70.7319 17.8572C71.123 18.1091 71.5754 18.2351 72.0891 18.2351C72.3775 18.2351 72.6443 18.197 72.8896 18.1207C73.1381 18.0445 73.3585 17.9335 73.5508 17.7876C73.743 17.6385 73.9021 17.4579 74.0281 17.2457C74.1573 17.0336 74.2468 16.7917 74.2965 16.5199L76.4741 16.5298C76.4177 16.9972 76.2769 17.4479 76.0515 17.8821C75.8294 18.313 75.5295 18.6991 75.1516 19.0405C74.7771 19.3786 74.3297 19.647 73.8093 19.8459C73.2923 20.0414 72.7073 20.1392 72.0543 20.1392C71.1462 20.1392 70.3342 19.9337 69.6183 19.5227C68.9057 19.1117 68.3422 18.5168 67.9279 17.7379C67.5169 16.959 67.3114 16.0161 67.3114 14.9091C67.3114 13.7988 67.5202 12.8542 67.9379 12.0753C68.3555 11.2964 68.9222 10.7031 69.6381 10.2955C70.354 9.88447 71.1594 9.67898 72.0543 9.67898C72.6443 9.67898 73.1912 9.76184 73.695 9.92756C74.2021 10.0933 74.6512 10.3352 75.0423 10.6534C75.4334 10.9683 75.7515 11.3544 75.9968 11.8118C76.2454 12.2692 76.4045 12.7929 76.4741 13.3828ZM80.1555 20.1442C79.6683 20.1442 79.2341 20.0597 78.853 19.8906C78.4718 19.7183 78.1702 19.4647 77.9482 19.13C77.7294 18.7919 77.62 18.371 77.62 17.8672C77.62 17.4429 77.6979 17.0866 77.8537 16.7983C78.0095 16.5099 78.2216 16.2779 78.4901 16.1023C78.7585 15.9266 79.0634 15.794 79.4048 15.7045C79.7495 15.6151 80.1108 15.5521 80.4886 15.5156C80.9328 15.4692 81.2907 15.4261 81.5625 15.3864C81.8343 15.3433 82.0315 15.2803 82.1541 15.1974C82.2768 15.1146 82.3381 14.992 82.3381 14.8295V14.7997C82.3381 14.4848 82.2386 14.2412 82.0398 14.0689C81.8442 13.8965 81.5658 13.8104 81.2045 13.8104C80.8234 13.8104 80.5201 13.8949 80.2947 14.0639C80.0694 14.2296 79.9202 14.4384 79.8473 14.6903L77.8885 14.5312C77.9879 14.0672 78.1835 13.6662 78.4751 13.3281C78.7668 12.9867 79.143 12.7249 79.6037 12.5426C80.0677 12.357 80.6046 12.2642 81.2145 12.2642C81.6387 12.2642 82.0447 12.3139 82.4325 12.4134C82.8236 12.5128 83.17 12.6669 83.4716 12.8757C83.7765 13.0845 84.0168 13.353 84.1925 13.6811C84.3681 14.0059 84.456 14.3954 84.456 14.8494V20H82.4474V18.9411H82.3878C82.2652 19.1797 82.1011 19.3902 81.8956 19.5724C81.6901 19.7514 81.4432 19.8923 81.1548 19.995C80.8665 20.0945 80.5334 20.1442 80.1555 20.1442ZM80.7621 18.6825C81.0736 18.6825 81.3487 18.6212 81.5874 18.4986C81.826 18.3726 82.0133 18.2036 82.1491 17.9915C82.285 17.7794 82.353 17.5391 82.353 17.2706V16.4602C82.2867 16.5033 82.1955 16.5431 82.0795 16.5795C81.9669 16.6127 81.8393 16.6442 81.6967 16.674C81.5542 16.7005 81.4117 16.7254 81.2692 16.7486C81.1267 16.7685 80.9974 16.7867 80.8814 16.8033C80.6328 16.8397 80.4157 16.8977 80.2301 16.9773C80.0445 17.0568 79.9003 17.1645 79.7976 17.3004C79.6948 17.433 79.6435 17.5987 79.6435 17.7976C79.6435 18.0859 79.7479 18.3063 79.9567 18.4588C80.1688 18.608 80.4373 18.6825 80.7621 18.6825ZM86.0991 20V12.3636H88.1523V13.696H88.2319C88.3711 13.2221 88.6048 12.8641 88.9329 12.6222C89.261 12.3769 89.6388 12.2543 90.0664 12.2543C90.1725 12.2543 90.2868 12.2609 90.4094 12.2741C90.5321 12.2874 90.6398 12.3056 90.7326 12.3288V14.2081C90.6332 14.1783 90.4956 14.1518 90.32 14.1286C90.1443 14.1054 89.9835 14.0938 89.8377 14.0938C89.5262 14.0938 89.2478 14.1617 89.0025 14.2976C88.7605 14.4302 88.5683 14.6158 88.4258 14.8544C88.2866 15.093 88.217 15.3681 88.217 15.6797V20H86.0991ZM91.8276 20V12.3636H93.8809V13.696H93.9604C94.0996 13.2221 94.3333 12.8641 94.6614 12.6222C94.9895 12.3769 95.3674 12.2543 95.7949 12.2543C95.901 12.2543 96.0153 12.2609 96.138 12.2741C96.2606 12.2874 96.3683 12.3056 96.4611 12.3288V14.2081C96.3617 14.1783 96.2241 14.1518 96.0485 14.1286C95.8728 14.1054 95.7121 14.0938 95.5662 14.0938C95.2547 14.0938 94.9763 14.1617 94.731 14.2976C94.4891 14.4302 94.2968 14.6158 94.1543 14.8544C94.0151 15.093 93.9455 15.3681 93.9455 15.6797V20H91.8276ZM97.5561 20V12.3636H99.674V20H97.5561ZM98.62 11.3793C98.3052 11.3793 98.035 11.2749 97.8097 11.0661C97.5876 10.8539 97.4766 10.6004 97.4766 10.3054C97.4766 10.0137 97.5876 9.76349 97.8097 9.55469C98.035 9.34257 98.3052 9.23651 98.62 9.23651C98.9349 9.23651 99.2034 9.34257 99.4254 9.55469C99.6508 9.76349 99.7635 10.0137 99.7635 10.3054C99.7635 10.6004 99.6508 10.8539 99.4254 11.0661C99.2034 11.2749 98.9349 11.3793 98.62 11.3793ZM103.488 15.5852V20H101.371V12.3636H103.389V13.7109H103.479C103.648 13.2668 103.931 12.9155 104.329 12.657C104.726 12.3951 105.209 12.2642 105.775 12.2642C106.306 12.2642 106.768 12.3802 107.162 12.6122C107.557 12.8442 107.863 13.1757 108.082 13.6065C108.301 14.0341 108.41 14.5445 108.41 15.1378V20H106.292V15.5156C106.296 15.0483 106.176 14.6837 105.934 14.4219C105.693 14.1567 105.359 14.0241 104.935 14.0241C104.65 14.0241 104.398 14.0855 104.18 14.2081C103.964 14.3307 103.795 14.5097 103.672 14.745C103.553 14.977 103.492 15.2571 103.488 15.5852ZM112.197 15.5852V20H110.08V9.81818H112.138V13.7109H112.227C112.4 13.2602 112.678 12.9072 113.062 12.652C113.447 12.3935 113.929 12.2642 114.509 12.2642C115.04 12.2642 115.502 12.3802 115.896 12.6122C116.294 12.8409 116.602 13.1707 116.821 13.6016C117.043 14.0291 117.152 14.5412 117.149 15.1378V20H115.031V15.5156C115.035 15.045 114.915 14.6787 114.673 14.4169C114.435 14.1551 114.1 14.0241 113.669 14.0241C113.381 14.0241 113.125 14.0855 112.903 14.2081C112.685 14.3307 112.512 14.5097 112.386 14.745C112.264 14.977 112.201 15.2571 112.197 15.5852ZM122.266 20.1491C121.494 20.1491 120.826 19.9851 120.263 19.657C119.702 19.3255 119.27 18.8648 118.965 18.2749C118.66 17.6816 118.508 16.9938 118.508 16.2116C118.508 15.4228 118.66 14.7334 118.965 14.1435C119.27 13.5502 119.702 13.0895 120.263 12.7614C120.826 12.4299 121.494 12.2642 122.266 12.2642C123.038 12.2642 123.705 12.4299 124.265 12.7614C124.828 13.0895 125.262 13.5502 125.567 14.1435C125.872 14.7334 126.025 15.4228 126.025 16.2116C126.025 16.9938 125.872 17.6816 125.567 18.2749C125.262 18.8648 124.828 19.3255 124.265 19.657C123.705 19.9851 123.038 20.1491 122.266 20.1491ZM122.276 18.5085C122.627 18.5085 122.921 18.4091 123.156 18.2102C123.391 18.008 123.569 17.733 123.688 17.3849C123.811 17.0369 123.872 16.6409 123.872 16.1967C123.872 15.7526 123.811 15.3565 123.688 15.0085C123.569 14.6605 123.391 14.3854 123.156 14.1832C122.921 13.9811 122.627 13.88 122.276 13.88C121.921 13.88 121.623 13.9811 121.381 14.1832C121.143 14.3854 120.962 14.6605 120.839 15.0085C120.72 15.3565 120.66 15.7526 120.66 16.1967C120.66 16.6409 120.72 17.0369 120.839 17.3849C120.962 17.733 121.143 18.008 121.381 18.2102C121.623 18.4091 121.921 18.5085 122.276 18.5085ZM138.64 14.9787V16.6591H133.997V14.9787H138.64ZM145.203 14.9787V16.6591H140.559V14.9787H145.203Z" fill="black"/>
<path d="M207.2 3H176.8C174.691 3 173.019 4.50187 173.019 6.375L173 26.625C173 28.4981 174.691 30 176.8 30H207.2C209.309 30 211 28.4981 211 26.625V6.375C211 4.50187 209.309 3 207.2 3ZM207.2 26.625H176.8V16.5H207.2V26.625ZM207.2 9.75H176.8V6.375H207.2V9.75Z" fill="black" fill-opacity="0.3"/>
<path d="M245.843 14.0689V15.7493H241.2V14.0689H245.843ZM252.406 14.0689V15.7493H247.762V14.0689H252.406ZM260.731 20V9.81818H264.748C265.52 9.81818 266.178 9.96567 266.721 10.2607C267.265 10.5523 267.679 10.9583 267.964 11.4787C268.253 11.9957 268.397 12.5923 268.397 13.2685C268.397 13.9446 268.251 14.5412 267.959 15.0582C267.668 15.5753 267.245 15.978 266.692 16.2663C266.141 16.5547 265.475 16.6989 264.693 16.6989H262.133V14.9737H264.345C264.759 14.9737 265.101 14.9025 265.369 14.7599C265.641 14.6141 265.843 14.4136 265.976 14.1584C266.112 13.8999 266.18 13.6032 266.18 13.2685C266.18 12.9304 266.112 12.6354 265.976 12.3835C265.843 12.1283 265.641 11.9311 265.369 11.7919C265.097 11.6494 264.753 11.5781 264.335 11.5781H262.883V20H260.731ZM271.728 20.1442C271.241 20.1442 270.806 20.0597 270.425 19.8906C270.044 19.7183 269.742 19.4647 269.52 19.13C269.302 18.7919 269.192 18.371 269.192 17.8672C269.192 17.4429 269.27 17.0866 269.426 16.7983C269.582 16.5099 269.794 16.2779 270.062 16.1023C270.331 15.9266 270.636 15.794 270.977 15.7045C271.322 15.6151 271.683 15.5521 272.061 15.5156C272.505 15.4692 272.863 15.4261 273.135 15.3864C273.407 15.3433 273.604 15.2803 273.726 15.1974C273.849 15.1146 273.91 14.992 273.91 14.8295V14.7997C273.91 14.4848 273.811 14.2412 273.612 14.0689C273.416 13.8965 273.138 13.8104 272.777 13.8104C272.396 13.8104 272.092 13.8949 271.867 14.0639C271.642 14.2296 271.492 14.4384 271.42 14.6903L269.461 14.5312C269.56 14.0672 269.756 13.6662 270.047 13.3281C270.339 12.9867 270.715 12.7249 271.176 12.5426C271.64 12.357 272.177 12.2642 272.787 12.2642C273.211 12.2642 273.617 12.3139 274.005 12.4134C274.396 12.5128 274.742 12.6669 275.044 12.8757C275.349 13.0845 275.589 13.353 275.765 13.6811C275.94 14.0059 276.028 14.3954 276.028 14.8494V20H274.02V18.9411H273.96C273.837 19.1797 273.673 19.3902 273.468 19.5724C273.262 19.7514 273.015 19.8923 272.727 19.995C272.439 20.0945 272.106 20.1442 271.728 20.1442ZM272.334 18.6825C272.646 18.6825 272.921 18.6212 273.16 18.4986C273.398 18.3726 273.586 18.2036 273.721 17.9915C273.857 17.7794 273.925 17.5391 273.925 17.2706V16.4602C273.859 16.5033 273.768 16.5431 273.652 16.5795C273.539 16.6127 273.412 16.6442 273.269 16.674C273.126 16.7005 272.984 16.7254 272.841 16.7486C272.699 16.7685 272.57 16.7867 272.454 16.8033C272.205 16.8397 271.988 16.8977 271.802 16.9773C271.617 17.0568 271.473 17.1645 271.37 17.3004C271.267 17.433 271.216 17.5987 271.216 17.7976C271.216 18.0859 271.32 18.3063 271.529 18.4588C271.741 18.608 272.01 18.6825 272.334 18.6825ZM281.112 23.0227C280.426 23.0227 279.837 22.9283 279.347 22.7393C278.86 22.5537 278.472 22.3002 278.183 21.9787C277.895 21.6572 277.708 21.2959 277.622 20.8949L279.58 20.6314C279.64 20.7839 279.735 20.9264 279.864 21.0589C279.993 21.1915 280.164 21.2976 280.376 21.3771C280.591 21.46 280.853 21.5014 281.161 21.5014C281.622 21.5014 282.002 21.3887 282.3 21.1634C282.602 20.9413 282.752 20.5684 282.752 20.0447V18.6477H282.663C282.57 18.8598 282.431 19.0604 282.245 19.2493C282.06 19.4382 281.821 19.5923 281.529 19.7116C281.238 19.831 280.89 19.8906 280.485 19.8906C279.912 19.8906 279.39 19.758 278.919 19.4929C278.452 19.2244 278.079 18.8151 277.801 18.2649C277.526 17.7114 277.388 17.0121 277.388 16.1669C277.388 15.3018 277.529 14.5793 277.811 13.9993C278.092 13.4193 278.467 12.9851 278.934 12.6967C279.405 12.4084 279.92 12.2642 280.48 12.2642C280.908 12.2642 281.266 12.3371 281.554 12.483C281.843 12.6255 282.075 12.8045 282.25 13.0199C282.429 13.232 282.567 13.4408 282.663 13.6463H282.742V12.3636H284.845V20.0746C284.845 20.7242 284.686 21.2678 284.368 21.7053C284.05 22.1428 283.609 22.4709 283.046 22.6896C282.485 22.9117 281.841 23.0227 281.112 23.0227ZM281.156 18.2997C281.498 18.2997 281.786 18.2152 282.021 18.0462C282.26 17.8738 282.442 17.6286 282.568 17.3104C282.698 16.9889 282.762 16.6044 282.762 16.157C282.762 15.7095 282.699 15.3217 282.573 14.9936C282.447 14.6622 282.265 14.4053 282.026 14.223C281.788 14.0407 281.498 13.9496 281.156 13.9496C280.808 13.9496 280.515 14.044 280.276 14.233C280.038 14.4186 279.857 14.6771 279.735 15.0085C279.612 15.34 279.551 15.7228 279.551 16.157C279.551 16.5978 279.612 16.9789 279.735 17.3004C279.86 17.6186 280.041 17.8655 280.276 18.0412C280.515 18.2135 280.808 18.2997 281.156 18.2997ZM288.708 20.1442C288.221 20.1442 287.787 20.0597 287.406 19.8906C287.025 19.7183 286.723 19.4647 286.501 19.13C286.282 18.7919 286.173 18.371 286.173 17.8672C286.173 17.4429 286.251 17.0866 286.406 16.7983C286.562 16.5099 286.774 16.2779 287.043 16.1023C287.311 15.9266 287.616 15.794 287.958 15.7045C288.302 15.6151 288.664 15.5521 289.041 15.5156C289.485 15.4692 289.843 15.4261 290.115 15.3864C290.387 15.3433 290.584 15.2803 290.707 15.1974C290.829 15.1146 290.891 14.992 290.891 14.8295V14.7997C290.891 14.4848 290.791 14.2412 290.593 14.0689C290.397 13.8965 290.119 13.8104 289.757 13.8104C289.376 13.8104 289.073 13.8949 288.847 14.0639C288.622 14.2296 288.473 14.4384 288.4 14.6903L286.441 14.5312C286.541 14.0672 286.736 13.6662 287.028 13.3281C287.32 12.9867 287.696 12.7249 288.156 12.5426C288.62 12.357 289.157 12.2642 289.767 12.2642C290.191 12.2642 290.597 12.3139 290.985 12.4134C291.376 12.5128 291.723 12.6669 292.024 12.8757C292.329 13.0845 292.57 13.353 292.745 13.6811C292.921 14.0059 293.009 14.3954 293.009 14.8494V20H291V18.9411H290.941C290.818 19.1797 290.654 19.3902 290.448 19.5724C290.243 19.7514 289.996 19.8923 289.708 19.995C289.419 20.0945 289.086 20.1442 288.708 20.1442ZM289.315 18.6825C289.626 18.6825 289.901 18.6212 290.14 18.4986C290.379 18.3726 290.566 18.2036 290.702 17.9915C290.838 17.7794 290.906 17.5391 290.906 17.2706V16.4602C290.839 16.5033 290.748 16.5431 290.632 16.5795C290.52 16.6127 290.392 16.6442 290.249 16.674C290.107 16.7005 289.964 16.7254 289.822 16.7486C289.679 16.7685 289.55 16.7867 289.434 16.8033C289.186 16.8397 288.968 16.8977 288.783 16.9773C288.597 17.0568 288.453 17.1645 288.35 17.3004C288.248 17.433 288.196 17.5987 288.196 17.7976C288.196 18.0859 288.301 18.3063 288.509 18.4588C288.722 18.608 288.99 18.6825 289.315 18.6825ZM294.652 20V12.3636H296.67V13.7109H296.76C296.919 13.2635 297.184 12.9105 297.555 12.652C297.926 12.3935 298.371 12.2642 298.888 12.2642C299.411 12.2642 299.857 12.3951 300.225 12.657C300.593 12.9155 300.838 13.2668 300.961 13.7109H301.04C301.196 13.2734 301.478 12.9238 301.885 12.6619C302.296 12.3968 302.782 12.2642 303.342 12.2642C304.055 12.2642 304.633 12.4912 305.077 12.9453C305.525 13.3961 305.748 14.0357 305.748 14.8643V20H303.635V15.282C303.635 14.8577 303.523 14.5395 303.297 14.3274C303.072 14.1153 302.79 14.0092 302.452 14.0092C302.068 14.0092 301.768 14.1319 301.552 14.3771C301.337 14.6191 301.229 14.9389 301.229 15.3366V20H299.176V15.2372C299.176 14.8627 299.068 14.5644 298.853 14.3423C298.641 14.1203 298.361 14.0092 298.013 14.0092C297.777 14.0092 297.565 14.0689 297.376 14.1882C297.191 14.3042 297.043 14.4683 296.934 14.6804C296.824 14.8892 296.77 15.1345 296.77 15.4162V20H294.652ZM310.901 20.1491C310.116 20.1491 309.44 19.9901 308.873 19.6719C308.31 19.3504 307.875 18.8963 307.57 18.3097C307.266 17.7197 307.113 17.022 307.113 16.2166C307.113 15.4311 307.266 14.7417 307.57 14.1484C307.875 13.5552 308.305 13.0928 308.858 12.7614C309.415 12.4299 310.068 12.2642 310.817 12.2642C311.321 12.2642 311.79 12.3454 312.224 12.5078C312.661 12.6669 313.043 12.9072 313.367 13.2287C313.695 13.5502 313.951 13.9545 314.133 14.4418C314.315 14.9257 314.406 15.4924 314.406 16.142V16.7237H307.958V15.4112H312.413C312.413 15.1063 312.347 14.8362 312.214 14.6009C312.081 14.3655 311.897 14.1816 311.662 14.049C311.43 13.9131 311.16 13.8452 310.852 13.8452C310.53 13.8452 310.245 13.9197 309.997 14.0689C309.751 14.2147 309.559 14.4119 309.42 14.6605C309.281 14.9058 309.209 15.1792 309.206 15.4808V16.7287C309.206 17.1065 309.276 17.433 309.415 17.7081C309.557 17.9832 309.758 18.1953 310.017 18.3445C310.275 18.4936 310.582 18.5682 310.936 18.5682C311.172 18.5682 311.387 18.535 311.583 18.4688C311.778 18.4025 311.945 18.303 312.085 18.1705C312.224 18.0379 312.33 17.8755 312.403 17.6832L314.362 17.8125C314.262 18.2831 314.058 18.6941 313.75 19.0455C313.445 19.3935 313.051 19.6652 312.567 19.8608C312.086 20.053 311.531 20.1491 310.901 20.1491ZM317.906 15.5852V20H315.789V12.3636H317.807V13.7109H317.896C318.066 13.2668 318.349 12.9155 318.747 12.657C319.144 12.3951 319.627 12.2642 320.193 12.2642C320.724 12.2642 321.186 12.3802 321.58 12.6122C321.975 12.8442 322.281 13.1757 322.5 13.6065C322.719 14.0341 322.828 14.5445 322.828 15.1378V20H320.71V15.5156C320.714 15.0483 320.594 14.6837 320.352 14.4219C320.11 14.1567 319.777 14.0241 319.353 14.0241C319.068 14.0241 318.816 14.0855 318.597 14.2081C318.382 14.3307 318.213 14.5097 318.09 14.745C317.971 14.977 317.91 15.2571 317.906 15.5852ZM328.559 12.3636V13.9545H323.961V12.3636H328.559ZM325.005 10.5341H327.123V17.6534C327.123 17.849 327.152 18.0014 327.212 18.1108C327.272 18.2169 327.355 18.2914 327.461 18.3345C327.57 18.3776 327.696 18.3991 327.838 18.3991C327.938 18.3991 328.037 18.3909 328.137 18.3743C328.236 18.3544 328.312 18.3395 328.365 18.3295L328.699 19.9055C328.592 19.9387 328.443 19.9768 328.251 20.0199C328.059 20.0663 327.825 20.0945 327.55 20.1044C327.04 20.1243 326.592 20.0563 326.208 19.9006C325.827 19.7448 325.53 19.5028 325.318 19.1747C325.106 18.8466 325.001 18.4323 325.005 17.9318V10.5341ZM333.307 20.1491C332.535 20.1491 331.867 19.9851 331.304 19.657C330.743 19.3255 330.311 18.8648 330.006 18.2749C329.701 17.6816 329.549 16.9938 329.549 16.2116C329.549 15.4228 329.701 14.7334 330.006 14.1435C330.311 13.5502 330.743 13.0895 331.304 12.7614C331.867 12.4299 332.535 12.2642 333.307 12.2642C334.079 12.2642 334.746 12.4299 335.306 12.7614C335.869 13.0895 336.303 13.5502 336.608 14.1435C336.913 14.7334 337.066 15.4228 337.066 16.2116C337.066 16.9938 336.913 17.6816 336.608 18.2749C336.303 18.8648 335.869 19.3255 335.306 19.657C334.746 19.9851 334.079 20.1491 333.307 20.1491ZM333.317 18.5085C333.668 18.5085 333.962 18.4091 334.197 18.2102C334.432 18.008 334.61 17.733 334.729 17.3849C334.852 17.0369 334.913 16.6409 334.913 16.1967C334.913 15.7526 334.852 15.3565 334.729 15.0085C334.61 14.6605 334.432 14.3854 334.197 14.1832C333.962 13.9811 333.668 13.88 333.317 13.88C332.962 13.88 332.664 13.9811 332.422 14.1832C332.184 14.3854 332.003 14.6605 331.88 15.0085C331.761 15.3565 331.701 15.7526 331.701 16.1967C331.701 16.6409 331.761 17.0369 331.88 17.3849C332.003 17.733 332.184 18.008 332.422 18.2102C332.664 18.4091 332.962 18.5085 333.317 18.5085ZM346.441 14.9787V16.6591H341.797V14.9787H346.441ZM353.003 14.9787V16.6591H348.36V14.9787H353.003Z" fill="black" fill-opacity="0.3"/>
<path d="M401.885 8.37L392 18.255L386.615 12.885L384.5 15L392 22.5L404 10.5L401.885 8.37ZM395 0C386.72 0 380 6.72 380 15C380 23.28 386.72 30 395 30C403.28 30 410 23.28 410 15C410 6.72 403.28 0 395 0ZM395 27C388.37 27 383 21.63 383 15C383 8.37 388.37 3 395 3C401.63 3 407 8.37 407 15C407 21.63 401.63 27 395 27Z" fill="black" fill-opacity="0.3"/>
<path d="M441.603 14.0689V15.7493H436.96V14.0689H441.603ZM448.165 14.0689V15.7493H443.522V14.0689H448.165ZM462.234 13.3828H460.056C460.017 13.1011 459.935 12.8509 459.813 12.6321C459.69 12.41 459.533 12.2211 459.34 12.0653C459.148 11.9096 458.926 11.7902 458.674 11.7074C458.426 11.6245 458.155 11.5831 457.864 11.5831C457.337 11.5831 456.878 11.714 456.487 11.9759C456.096 12.2344 455.792 12.6122 455.577 13.1094C455.361 13.6032 455.254 14.2031 455.254 14.9091C455.254 15.6349 455.361 16.2448 455.577 16.7386C455.796 17.2325 456.101 17.6054 456.492 17.8572C456.883 18.1091 457.335 18.2351 457.849 18.2351C458.137 18.2351 458.404 18.197 458.649 18.1207C458.898 18.0445 459.118 17.9335 459.311 17.7876C459.503 17.6385 459.662 17.4579 459.788 17.2457C459.917 17.0336 460.007 16.7917 460.056 16.5199L462.234 16.5298C462.177 16.9972 462.037 17.4479 461.811 17.8821C461.589 18.313 461.289 18.6991 460.911 19.0405C460.537 19.3786 460.089 19.647 459.569 19.8459C459.052 20.0414 458.467 20.1392 457.814 20.1392C456.906 20.1392 456.094 19.9337 455.378 19.5227C454.665 19.1117 454.102 18.5168 453.688 17.7379C453.277 16.959 453.071 16.0161 453.071 14.9091C453.071 13.7988 453.28 12.8542 453.698 12.0753C454.115 11.2964 454.682 10.7031 455.398 10.2955C456.114 9.88447 456.919 9.67898 457.814 9.67898C458.404 9.67898 458.951 9.76184 459.455 9.92756C459.962 10.0933 460.411 10.3352 460.802 10.6534C461.193 10.9683 461.511 11.3544 461.757 11.8118C462.005 12.2692 462.164 12.7929 462.234 13.3828ZM467.188 20.1491C466.416 20.1491 465.748 19.9851 465.184 19.657C464.624 19.3255 464.192 18.8648 463.887 18.2749C463.582 17.6816 463.43 16.9938 463.43 16.2116C463.43 15.4228 463.582 14.7334 463.887 14.1435C464.192 13.5502 464.624 13.0895 465.184 12.7614C465.748 12.4299 466.416 12.2642 467.188 12.2642C467.96 12.2642 468.626 12.4299 469.187 12.7614C469.75 13.0895 470.184 13.5502 470.489 14.1435C470.794 14.7334 470.947 15.4228 470.947 16.2116C470.947 16.9938 470.794 17.6816 470.489 18.2749C470.184 18.8648 469.75 19.3255 469.187 19.657C468.626 19.9851 467.96 20.1491 467.188 20.1491ZM467.198 18.5085C467.549 18.5085 467.843 18.4091 468.078 18.2102C468.313 18.008 468.491 17.733 468.61 17.3849C468.733 17.0369 468.794 16.6409 468.794 16.1967C468.794 15.7526 468.733 15.3565 468.61 15.0085C468.491 14.6605 468.313 14.3854 468.078 14.1832C467.843 13.9811 467.549 13.88 467.198 13.88C466.843 13.88 466.545 13.9811 466.303 14.1832C466.064 14.3854 465.884 14.6605 465.761 15.0085C465.642 15.3565 465.582 15.7526 465.582 16.1967C465.582 16.6409 465.642 17.0369 465.761 17.3849C465.884 17.733 466.064 18.008 466.303 18.2102C466.545 18.4091 466.843 18.5085 467.198 18.5085ZM474.442 15.5852V20H472.324V12.3636H474.342V13.7109H474.432C474.601 13.2668 474.884 12.9155 475.282 12.657C475.68 12.3951 476.162 12.2642 476.729 12.2642C477.259 12.2642 477.721 12.3802 478.116 12.6122C478.51 12.8442 478.817 13.1757 479.035 13.6065C479.254 14.0341 479.363 14.5445 479.363 15.1378V20H477.246V15.5156C477.249 15.0483 477.13 14.6837 476.888 14.4219C476.646 14.1567 476.313 14.0241 475.888 14.0241C475.603 14.0241 475.351 14.0855 475.133 14.2081C474.917 14.3307 474.748 14.5097 474.626 14.745C474.506 14.977 474.445 15.2571 474.442 15.5852ZM484.483 20.1491C483.701 20.1491 483.028 19.9834 482.464 19.652C481.904 19.3172 481.473 18.8532 481.172 18.2599C480.874 17.6667 480.724 16.9839 480.724 16.2116C480.724 15.4295 480.875 14.7434 481.177 14.1534C481.482 13.5601 481.914 13.0978 482.474 12.7663C483.035 12.4316 483.701 12.2642 484.473 12.2642C485.139 12.2642 485.723 12.3852 486.223 12.6271C486.723 12.8691 487.12 13.2088 487.411 13.6463C487.703 14.0838 487.864 14.5975 487.893 15.1875H485.895C485.839 14.8063 485.689 14.4998 485.447 14.2678C485.209 14.0324 484.896 13.9148 484.508 13.9148C484.18 13.9148 483.893 14.0043 483.648 14.1832C483.406 14.3589 483.217 14.6158 483.081 14.9538C482.945 15.2919 482.877 15.7012 482.877 16.1818C482.877 16.669 482.943 17.0833 483.076 17.4247C483.212 17.7661 483.402 18.0263 483.648 18.2053C483.893 18.3842 484.18 18.4737 484.508 18.4737C484.75 18.4737 484.967 18.424 485.159 18.3246C485.355 18.2251 485.515 18.081 485.641 17.892C485.771 17.6998 485.855 17.4695 485.895 17.201H487.893C487.86 17.7843 487.701 18.2981 487.416 18.7422C487.134 19.183 486.745 19.5277 486.248 19.7763C485.751 20.0249 485.162 20.1491 484.483 20.1491ZM491.367 9.81818V20H489.249V9.81818H491.367ZM497.961 16.7486V12.3636H500.079V20H498.045V18.6129H497.966C497.794 19.0604 497.507 19.42 497.106 19.6918C496.708 19.9635 496.223 20.0994 495.649 20.0994C495.139 20.0994 494.69 19.9834 494.302 19.7514C493.914 19.5194 493.611 19.1896 493.392 18.7621C493.177 18.3345 493.067 17.8224 493.064 17.2259V12.3636H495.182V16.848C495.185 17.2988 495.306 17.6551 495.545 17.9169C495.783 18.1787 496.103 18.3097 496.504 18.3097C496.759 18.3097 496.998 18.2517 497.22 18.1357C497.442 18.0163 497.621 17.8407 497.757 17.6087C497.896 17.3767 497.964 17.09 497.961 16.7486ZM508.127 14.5412L506.188 14.6605C506.155 14.4948 506.083 14.3456 505.974 14.2131C505.865 14.0772 505.72 13.9695 505.541 13.8899C505.366 13.8071 505.155 13.7656 504.91 13.7656C504.582 13.7656 504.305 13.8352 504.08 13.9744C503.854 14.1103 503.742 14.2926 503.742 14.5213C503.742 14.7036 503.815 14.8577 503.96 14.9837C504.106 15.1096 504.356 15.2107 504.711 15.2869L506.093 15.5653C506.836 15.7178 507.389 15.9631 507.754 16.3011C508.118 16.6392 508.301 17.0833 508.301 17.6335C508.301 18.134 508.153 18.5732 507.858 18.951C507.566 19.3288 507.165 19.6238 506.655 19.8359C506.148 20.0447 505.563 20.1491 504.9 20.1491C503.889 20.1491 503.084 19.9387 502.484 19.5178C501.887 19.0935 501.538 18.5168 501.435 17.7876L503.518 17.6783C503.581 17.9865 503.733 18.2218 503.975 18.3842C504.217 18.5433 504.527 18.6229 504.905 18.6229C505.276 18.6229 505.575 18.5516 505.8 18.4091C506.029 18.2633 506.145 18.076 506.148 17.8473C506.145 17.6551 506.063 17.4976 505.904 17.375C505.745 17.2491 505.5 17.1529 505.169 17.0866L503.846 16.8232C503.1 16.674 502.545 16.4155 502.181 16.0476C501.819 15.6797 501.639 15.2107 501.639 14.6406C501.639 14.1501 501.771 13.7275 502.036 13.3729C502.305 13.0182 502.681 12.7448 503.165 12.5526C503.652 12.3603 504.222 12.2642 504.875 12.2642C505.84 12.2642 506.599 12.468 507.152 12.8757C507.709 13.2834 508.034 13.8385 508.127 14.5412ZM511.812 20.1442C511.325 20.1442 510.89 20.0597 510.509 19.8906C510.128 19.7183 509.826 19.4647 509.604 19.13C509.386 18.7919 509.276 18.371 509.276 17.8672C509.276 17.4429 509.354 17.0866 509.51 16.7983C509.666 16.5099 509.878 16.2779 510.146 16.1023C510.415 15.9266 510.72 15.794 511.061 15.7045C511.406 15.6151 511.767 15.5521 512.145 15.5156C512.589 15.4692 512.947 15.4261 513.219 15.3864C513.491 15.3433 513.688 15.2803 513.81 15.1974C513.933 15.1146 513.994 14.992 513.994 14.8295V14.7997C513.994 14.4848 513.895 14.2412 513.696 14.0689C513.5 13.8965 513.222 13.8104 512.861 13.8104C512.48 13.8104 512.176 13.8949 511.951 14.0639C511.726 14.2296 511.576 14.4384 511.504 14.6903L509.545 14.5312C509.644 14.0672 509.84 13.6662 510.131 13.3281C510.423 12.9867 510.799 12.7249 511.26 12.5426C511.724 12.357 512.261 12.2642 512.871 12.2642C513.295 12.2642 513.701 12.3139 514.089 12.4134C514.48 12.5128 514.826 12.6669 515.128 12.8757C515.433 13.0845 515.673 13.353 515.849 13.6811C516.024 14.0059 516.112 14.3954 516.112 14.8494V20H514.104V18.9411H514.044C513.921 19.1797 513.757 19.3902 513.552 19.5724C513.346 19.7514 513.099 19.8923 512.811 19.995C512.523 20.0945 512.19 20.1442 511.812 20.1442ZM512.418 18.6825C512.73 18.6825 513.005 18.6212 513.244 18.4986C513.482 18.3726 513.67 18.2036 513.805 17.9915C513.941 17.7794 514.009 17.5391 514.009 17.2706V16.4602C513.943 16.5033 513.852 16.5431 513.736 16.5795C513.623 16.6127 513.496 16.6442 513.353 16.674C513.21 16.7005 513.068 16.7254 512.925 16.7486C512.783 16.7685 512.654 16.7867 512.538 16.8033C512.289 16.8397 512.072 16.8977 511.886 16.9773C511.701 17.0568 511.557 17.1645 511.454 17.3004C511.351 17.433 511.3 17.5987 511.3 17.7976C511.3 18.0859 511.404 18.3063 511.613 18.4588C511.825 18.608 512.094 18.6825 512.418 18.6825ZM511.528 11.424L510.35 11.4091C510.35 10.776 510.506 10.2905 510.817 9.95241C511.132 9.61435 511.515 9.44366 511.966 9.44034C512.198 9.44034 512.397 9.47846 512.562 9.55469C512.732 9.6276 512.882 9.71378 513.015 9.81321C513.151 9.91264 513.28 10.0005 513.403 10.0767C513.525 10.1496 513.658 10.1861 513.8 10.1861C513.993 10.1828 514.138 10.1115 514.238 9.9723C514.341 9.82978 514.392 9.64418 514.392 9.41548L515.55 9.45028C515.544 10.0767 515.385 10.5606 515.073 10.902C514.762 11.2401 514.382 11.4107 513.935 11.4141C513.686 11.4141 513.477 11.3776 513.308 11.3047C513.143 11.2285 512.997 11.1423 512.871 11.0462C512.745 10.9467 512.622 10.8589 512.503 10.7827C512.384 10.7064 512.249 10.6683 512.1 10.6683C511.928 10.6683 511.789 10.7363 511.683 10.8722C511.58 11.008 511.528 11.192 511.528 11.424ZM521.206 20.1491C520.433 20.1491 519.766 19.9851 519.202 19.657C518.642 19.3255 518.209 18.8648 517.904 18.2749C517.6 17.6816 517.447 16.9938 517.447 16.2116C517.447 15.4228 517.6 14.7334 517.904 14.1435C518.209 13.5502 518.642 13.0895 519.202 12.7614C519.766 12.4299 520.433 12.2642 521.206 12.2642C521.978 12.2642 522.644 12.4299 523.204 12.7614C523.768 13.0895 524.202 13.5502 524.507 14.1435C524.812 14.7334 524.964 15.4228 524.964 16.2116C524.964 16.9938 524.812 17.6816 524.507 18.2749C524.202 18.8648 523.768 19.3255 523.204 19.657C522.644 19.9851 521.978 20.1491 521.206 20.1491ZM521.216 18.5085C521.567 18.5085 521.86 18.4091 522.096 18.2102C522.331 18.008 522.508 17.733 522.627 17.3849C522.75 17.0369 522.811 16.6409 522.811 16.1967C522.811 15.7526 522.75 15.3565 522.627 15.0085C522.508 14.6605 522.331 14.3854 522.096 14.1832C521.86 13.9811 521.567 13.88 521.216 13.88C520.861 13.88 520.563 13.9811 520.321 14.1832C520.082 14.3854 519.901 14.6605 519.779 15.0085C519.659 15.3565 519.6 15.7526 519.6 16.1967C519.6 16.6409 519.659 17.0369 519.779 17.3849C519.901 17.733 520.082 18.008 520.321 18.2102C520.563 18.4091 520.861 18.5085 521.216 18.5085Z" fill="black" fill-opacity="0.3"/>
</svg>
