<svg width="35" height="35" viewBox="0 0 35 35" fill="none" xmlns="http://www.w3.org/2000/svg">
<path d="M21 17.5L14 10.5014V15.7503H0V19.2497H14V24.4986M35 17.5C35.0008 21.6808 33.5042 25.7238 30.7812 28.8967C28.0583 32.0697 24.2889 34.1629 20.1557 34.7973C16.0225 35.4318 11.7986 34.5655 8.24903 32.3554C4.69942 30.1453 2.05869 26.7375 0.805 22.749H4.5325C5.75086 25.7602 7.97881 28.2541 10.8345 29.8032C13.6903 31.3522 16.996 31.86 20.1851 31.2395C23.3742 30.619 26.2482 28.9089 28.3145 26.4022C30.3809 23.8955 31.5108 20.7483 31.5108 17.5C31.5108 14.2517 30.3809 11.1045 28.3145 8.59779C26.2482 6.09109 23.3742 4.38096 20.1851 3.76048C16.996 3.13999 13.6903 3.64779 10.8345 5.19684C7.97881 6.7459 5.75086 9.23976 4.5325 12.251H0.805C2.05869 8.26252 4.69942 4.85467 8.24903 2.64457C11.7986 0.434475 16.0225 -0.431776 20.1557 0.202678C24.2889 0.837132 28.0583 2.93035 30.7812 6.1033C33.5042 9.27625 35.0008 13.3192 35 17.5Z" fill="white"/>
</svg>
