<svg width="47" height="47" viewBox="0 0 47 47" fill="none" xmlns="http://www.w3.org/2000/svg">
<path d="M21.15 0V4.8645C12.643 5.9455 5.9455 12.643 4.8645 21.15H0V25.85H4.8645C5.9455 34.357 12.643 41.0545 21.15 42.1355V47H25.85V42.1355C34.357 41.0545 41.0545 34.357 42.1355 25.85H47V21.15H42.1355C41.0545 12.643 34.357 5.9455 25.85 4.8645V0M21.15 9.588V14.1H25.85V9.6115C31.725 10.575 36.425 15.275 37.412 21.15H32.9V25.85H37.3885C36.425 31.725 31.725 36.425 25.85 37.412V32.9H21.15V37.3885C15.275 36.425 10.575 31.725 9.588 25.85H14.1V21.15H9.6115C10.575 15.275 15.275 10.575 21.15 9.588ZM23.5 21.15C22.8767 21.15 22.279 21.3976 21.8383 21.8383C21.3976 22.279 21.15 22.8767 21.15 23.5C21.15 24.1233 21.3976 24.721 21.8383 25.1617C22.279 25.6024 22.8767 25.85 23.5 25.85C24.1233 25.85 24.721 25.6024 25.1617 25.1617C25.6024 24.721 25.85 24.1233 25.85 23.5C25.85 22.8767 25.6024 22.279 25.1617 21.8383C24.721 21.3976 24.1233 21.15 23.5 21.15Z" fill="white"/>
</svg>
