<svg width="139" height="139" viewBox="0 0 139 139" fill="none" xmlns="http://www.w3.org/2000/svg">
<path d="M104.262 26.4221L105.059 25.6251L104.173 24.9287C94.2692 17.1473 82.2374 12.9 69.5 12.9C38.3677 12.9 12.9 38.3677 12.9 69.5C12.9 82.2374 17.1473 94.2692 24.9287 104.173L25.6251 105.059L26.4221 104.262L104.262 26.4221ZM34.7379 112.578L33.9409 113.375L34.8272 114.071C44.7308 121.853 56.7626 126.1 69.5 126.1C100.632 126.1 126.1 100.632 126.1 69.5C126.1 56.7626 121.853 44.7308 114.071 34.8272L113.375 33.9409L112.578 34.7379L34.7379 112.578ZM1 69.5C1 31.8273 31.8273 1 69.5 1C107.173 1 138 31.8273 138 69.5C138 107.173 107.173 138 69.5 138C31.8273 138 1 107.173 1 69.5Z" fill="#FF0000" stroke="black" stroke-width="2"/>
<path d="M53.7 95.2C49.355 95.2 45.8395 98.755 45.8395 103.1C45.8395 107.445 49.355 111 53.7 111C58.045 111 61.6 107.445 61.6 103.1C61.6 98.755 58.045 95.2 53.7 95.2ZM30 32V39.9H37.9L52.12 69.8805L46.7875 79.558C46.1555 80.664 45.8 81.9675 45.8 83.35C45.8 87.695 49.355 91.25 53.7 91.25H101.1V83.35H55.359C54.806 83.35 54.3715 82.9155 54.3715 82.3625L54.49 81.8885L58.045 75.45H87.4725C90.435 75.45 93.042 73.8305 94.385 71.3815L108.526 45.746C108.842 45.193 109 44.5215 109 43.85C109 41.6775 107.223 39.9 105.05 39.9H46.6295L42.9165 32H30ZM93.2 95.2C88.855 95.2 85.3395 98.755 85.3395 103.1C85.3395 107.445 88.855 111 93.2 111C97.545 111 101.1 107.445 101.1 103.1C101.1 98.755 97.545 95.2 93.2 95.2Z" fill="black"/>
</svg>
